<svg width="1024" height="1024" viewBox="0 0 1024 1024" fill="none" xmlns="http://www.w3.org/2000/svg">
<rect width="1024" height="1024" fill="#1E1E1E"/>
<rect width="1024" height="1024" fill="#F7F7F7"/>
<g filter="url(#filter0_d_0_1)">
<circle cx="173.5" cy="371.5" r="12.5" fill="#428AA7"/>
</g>
<g filter="url(#filter1_d_0_1)">
<circle cx="228.5" cy="371.5" r="12.5" fill="#1A4E63"/>
<circle cx="228.5" cy="371.5" r="12.5" fill="#1A4E63"/>
<circle cx="228.5" cy="371.5" r="12.5" fill="#1A4E63"/>
<circle cx="228.5" cy="371.5" r="12.5" fill="#1A4E63"/>
<circle cx="228.5" cy="371.5" r="12.5" fill="#1A4E63"/>
<circle cx="228.5" cy="371.5" r="12.5" fill="#1A4E63"/>
</g>
<g filter="url(#filter2_d_0_1)">
<circle cx="862.5" cy="371.5" r="12.5" transform="rotate(180 862.5 371.5)" fill="#428AA7"/>
</g>
<g filter="url(#filter3_d_0_1)">
<circle cx="807.5" cy="371.5" r="12.5" transform="rotate(180 807.5 371.5)" fill="#1A4E63"/>
<circle cx="807.5" cy="371.5" r="12.5" transform="rotate(180 807.5 371.5)" fill="#1A4E63"/>
<circle cx="807.5" cy="371.5" r="12.5" transform="rotate(180 807.5 371.5)" fill="#1A4E63"/>
<circle cx="807.5" cy="371.5" r="12.5" transform="rotate(180 807.5 371.5)" fill="#1A4E63"/>
<circle cx="807.5" cy="371.5" r="12.5" transform="rotate(180 807.5 371.5)" fill="#1A4E63"/>
<circle cx="807.5" cy="371.5" r="12.5" transform="rotate(180 807.5 371.5)" fill="#1A4E63"/>
</g>
<path fill-rule="evenodd" clip-rule="evenodd" d="M687 371V497C687 593.65 608.65 672 512 672C415.35 672 337 593.65 337 497V371H687Z" fill="#53CFCF"/>
<path fill-rule="evenodd" clip-rule="evenodd" d="M494.004 78C405.809 87.0093 337 161.512 337 252.086V365H687V252.086C687 161.512 618.191 87.0093 529.996 78L494.004 78Z" fill="#A3FFDC"/>
<g filter="url(#filter4_d_0_1)">
<line x1="353.055" y1="362.5" x2="507.055" y2="363.5" stroke="#1A4E63" stroke-width="17"/>
</g>
<g filter="url(#filter5_d_0_1)">
<line x1="515.5" y1="672" x2="515.5" y2="261" stroke="#1A4E63" stroke-width="17"/>
<path d="M518 267L389 138" stroke="#1A4E63" stroke-width="17"/>
<g filter="url(#filter6_d_0_1)">
<line x1="524" y1="363.5" x2="671" y2="363.5" stroke="#1A4E63" stroke-width="17"/>
</g>
</g>
<line x1="347.025" y1="362.5" x2="683.025" y2="363.482" stroke="#1A4E63" stroke-width="17"/>
<g filter="url(#filter7_d_0_1)">
<rect x="345.5" y="80.5" width="333" height="583" rx="166.5" stroke="#1A4E63" stroke-width="17" shape-rendering="crispEdges"/>
</g>
<g filter="url(#filter8_d_0_1)">
<path d="M326.88 767.3C341.547 767.3 353.133 771.553 361.64 780.06C370.293 788.567 374.62 801.18 374.62 817.9V885H353.5V820.32C353.5 809.027 350.86 800.52 345.58 794.8C340.447 789.08 333.04 786.22 323.36 786.22C312.653 786.22 304.147 789.593 297.84 796.34C291.533 802.94 288.38 812.473 288.38 824.94V885H267.26V820.32C267.26 809.027 264.62 800.52 259.34 794.8C254.207 789.08 246.8 786.22 237.12 786.22C226.413 786.22 217.907 789.593 211.6 796.34C205.293 802.94 202.14 812.473 202.14 824.94V885H181.02V768.4H201.26V785.78C205.513 779.767 211.087 775.22 217.98 772.14C224.873 768.913 232.72 767.3 241.52 767.3C250.613 767.3 258.68 769.133 265.72 772.8C272.76 776.467 278.187 781.82 282 788.86C286.4 782.113 292.487 776.833 300.26 773.02C308.18 769.207 317.053 767.3 326.88 767.3ZM568.125 768.4V885H547.885V866.52C543.192 872.973 537.252 877.887 530.065 881.26C522.879 884.633 514.959 886.32 506.305 886.32C495.012 886.32 484.892 883.827 475.945 878.84C466.999 873.853 459.959 866.887 454.825 857.94C449.839 848.847 447.345 838.433 447.345 826.7C447.345 814.967 449.839 804.627 454.825 795.68C459.959 786.733 466.999 779.767 475.945 774.78C484.892 769.793 495.012 767.3 506.305 767.3C514.665 767.3 522.365 768.913 529.405 772.14C536.445 775.22 542.312 779.84 547.005 786V768.4H568.125ZM508.065 867.84C515.399 867.84 522.072 866.153 528.085 862.78C534.099 859.26 538.792 854.42 542.165 848.26C545.539 841.953 547.225 834.767 547.225 826.7C547.225 818.633 545.539 811.52 542.165 805.36C538.792 799.053 534.099 794.213 528.085 790.84C522.072 787.467 515.399 785.78 508.065 785.78C500.585 785.78 493.839 787.467 487.825 790.84C481.959 794.213 477.265 799.053 473.745 805.36C470.372 811.52 468.685 818.633 468.685 826.7C468.685 834.767 470.372 841.953 473.745 848.26C477.265 854.42 481.959 859.26 487.825 862.78C493.839 866.153 500.585 867.84 508.065 867.84ZM637.126 929C631.993 929 627.226 928.413 622.826 927.24C618.426 926.067 614.76 924.307 611.826 921.96L618.646 905.68C623.046 909.347 628.766 911.18 635.806 911.18C641.38 911.18 645.633 909.42 648.566 905.9C651.646 902.527 653.186 897.467 653.186 890.72V768.4H674.306V890.28C674.306 902.307 671.08 911.767 664.626 918.66C658.173 925.553 649.006 929 637.126 929ZM663.746 745.96C659.64 745.96 656.193 744.64 653.406 742C650.766 739.36 649.446 736.133 649.446 732.32C649.446 728.507 650.766 725.28 653.406 722.64C656.193 719.853 659.64 718.46 663.746 718.46C667.853 718.46 671.226 719.78 673.866 722.42C676.653 724.913 678.046 728.067 678.046 731.88C678.046 735.84 676.653 739.213 673.866 742C671.226 744.64 667.853 745.96 663.746 745.96ZM803.926 830.66L779.726 853.1V885H758.606V721.76H779.726V826.48L843.306 768.4H868.826L819.766 816.58L873.666 885H847.706L803.926 830.66Z" fill="#1A4E63"/>
</g>
<defs>
<filter id="filter0_d_0_1" x="157" y="359" width="33" height="33" filterUnits="userSpaceOnUse" color-interpolation-filters="sRGB">
<feFlood flood-opacity="0" result="BackgroundImageFix"/>
<feColorMatrix in="SourceAlpha" type="matrix" values="0 0 0 0 0 0 0 0 0 0 0 0 0 0 0 0 0 0 127 0" result="hardAlpha"/>
<feOffset dy="4"/>
<feGaussianBlur stdDeviation="2"/>
<feComposite in2="hardAlpha" operator="out"/>
<feColorMatrix type="matrix" values="0 0 0 0 0 0 0 0 0 0 0 0 0 0 0 0 0 0 0.25 0"/>
<feBlend mode="normal" in2="BackgroundImageFix" result="effect1_dropShadow_0_1"/>
<feBlend mode="normal" in="SourceGraphic" in2="effect1_dropShadow_0_1" result="shape"/>
</filter>
<filter id="filter1_d_0_1" x="212" y="359" width="33" height="33" filterUnits="userSpaceOnUse" color-interpolation-filters="sRGB">
<feFlood flood-opacity="0" result="BackgroundImageFix"/>
<feColorMatrix in="SourceAlpha" type="matrix" values="0 0 0 0 0 0 0 0 0 0 0 0 0 0 0 0 0 0 127 0" result="hardAlpha"/>
<feOffset dy="4"/>
<feGaussianBlur stdDeviation="2"/>
<feComposite in2="hardAlpha" operator="out"/>
<feColorMatrix type="matrix" values="0 0 0 0 0 0 0 0 0 0 0 0 0 0 0 0 0 0 0.25 0"/>
<feBlend mode="normal" in2="BackgroundImageFix" result="effect1_dropShadow_0_1"/>
<feBlend mode="normal" in="SourceGraphic" in2="effect1_dropShadow_0_1" result="shape"/>
</filter>
<filter id="filter2_d_0_1" x="846" y="359" width="33" height="33" filterUnits="userSpaceOnUse" color-interpolation-filters="sRGB">
<feFlood flood-opacity="0" result="BackgroundImageFix"/>
<feColorMatrix in="SourceAlpha" type="matrix" values="0 0 0 0 0 0 0 0 0 0 0 0 0 0 0 0 0 0 127 0" result="hardAlpha"/>
<feOffset dy="4"/>
<feGaussianBlur stdDeviation="2"/>
<feComposite in2="hardAlpha" operator="out"/>
<feColorMatrix type="matrix" values="0 0 0 0 0 0 0 0 0 0 0 0 0 0 0 0 0 0 0.25 0"/>
<feBlend mode="normal" in2="BackgroundImageFix" result="effect1_dropShadow_0_1"/>
<feBlend mode="normal" in="SourceGraphic" in2="effect1_dropShadow_0_1" result="shape"/>
</filter>
<filter id="filter3_d_0_1" x="791" y="359" width="33" height="33" filterUnits="userSpaceOnUse" color-interpolation-filters="sRGB">
<feFlood flood-opacity="0" result="BackgroundImageFix"/>
<feColorMatrix in="SourceAlpha" type="matrix" values="0 0 0 0 0 0 0 0 0 0 0 0 0 0 0 0 0 0 127 0" result="hardAlpha"/>
<feOffset dy="4"/>
<feGaussianBlur stdDeviation="2"/>
<feComposite in2="hardAlpha" operator="out"/>
<feColorMatrix type="matrix" values="0 0 0 0 0 0 0 0 0 0 0 0 0 0 0 0 0 0 0.25 0"/>
<feBlend mode="normal" in2="BackgroundImageFix" result="effect1_dropShadow_0_1"/>
<feBlend mode="normal" in="SourceGraphic" in2="effect1_dropShadow_0_1" result="shape"/>
</filter>
<filter id="filter4_d_0_1" x="349" y="354" width="162.11" height="25.9996" filterUnits="userSpaceOnUse" color-interpolation-filters="sRGB">
<feFlood flood-opacity="0" result="BackgroundImageFix"/>
<feColorMatrix in="SourceAlpha" type="matrix" values="0 0 0 0 0 0 0 0 0 0 0 0 0 0 0 0 0 0 127 0" result="hardAlpha"/>
<feOffset dy="4"/>
<feGaussianBlur stdDeviation="2"/>
<feComposite in2="hardAlpha" operator="out"/>
<feColorMatrix type="matrix" values="0 0 0 0 0 0 0 0 0 0 0 0 0 0 0 0 0 0 0.25 0"/>
<feBlend mode="normal" in2="BackgroundImageFix" result="effect1_dropShadow_0_1"/>
<feBlend mode="normal" in="SourceGraphic" in2="effect1_dropShadow_0_1" result="shape"/>
</filter>
<filter id="filter5_d_0_1" x="381.99" y="127.99" width="296.01" height="548.01" filterUnits="userSpaceOnUse" color-interpolation-filters="sRGB">
<feFlood flood-opacity="0" result="BackgroundImageFix"/>
<feColorMatrix in="SourceAlpha" type="matrix" values="0 0 0 0 0 0 0 0 0 0 0 0 0 0 0 0 0 0 127 0" result="hardAlpha"/>
<feOffset dx="3"/>
<feGaussianBlur stdDeviation="2"/>
<feComposite in2="hardAlpha" operator="out"/>
<feColorMatrix type="matrix" values="0 0 0 0 0 0 0 0 0 0 0 0 0 0 0 0 0 0 0.25 0"/>
<feBlend mode="normal" in2="BackgroundImageFix" result="effect1_dropShadow_0_1"/>
<feBlend mode="normal" in="SourceGraphic" in2="effect1_dropShadow_0_1" result="shape"/>
</filter>
<filter id="filter6_d_0_1" x="520" y="355" width="155" height="25" filterUnits="userSpaceOnUse" color-interpolation-filters="sRGB">
<feFlood flood-opacity="0" result="BackgroundImageFix"/>
<feColorMatrix in="SourceAlpha" type="matrix" values="0 0 0 0 0 0 0 0 0 0 0 0 0 0 0 0 0 0 127 0" result="hardAlpha"/>
<feOffset dy="4"/>
<feGaussianBlur stdDeviation="2"/>
<feComposite in2="hardAlpha" operator="out"/>
<feColorMatrix type="matrix" values="0 0 0 0 0 0 0 0 0 0 0 0 0 0 0 0 0 0 0.25 0"/>
<feBlend mode="normal" in2="BackgroundImageFix" result="effect1_dropShadow_0_1"/>
<feBlend mode="normal" in="SourceGraphic" in2="effect1_dropShadow_0_1" result="shape"/>
</filter>
<filter id="filter7_d_0_1" x="336" y="72" width="358" height="610" filterUnits="userSpaceOnUse" color-interpolation-filters="sRGB">
<feFlood flood-opacity="0" result="BackgroundImageFix"/>
<feColorMatrix in="SourceAlpha" type="matrix" values="0 0 0 0 0 0 0 0 0 0 0 0 0 0 0 0 0 0 127 0" result="hardAlpha"/>
<feOffset dx="3" dy="6"/>
<feGaussianBlur stdDeviation="2"/>
<feComposite in2="hardAlpha" operator="out"/>
<feColorMatrix type="matrix" values="0 0 0 0 0 0 0 0 0 0 0 0 0 0 0 0 0 0 0.25 0"/>
<feBlend mode="normal" in2="BackgroundImageFix" result="effect1_dropShadow_0_1"/>
<feBlend mode="normal" in="SourceGraphic" in2="effect1_dropShadow_0_1" result="shape"/>
</filter>
<filter id="filter8_d_0_1" x="177.02" y="718.46" width="700.646" height="218.54" filterUnits="userSpaceOnUse" color-interpolation-filters="sRGB">
<feFlood flood-opacity="0" result="BackgroundImageFix"/>
<feColorMatrix in="SourceAlpha" type="matrix" values="0 0 0 0 0 0 0 0 0 0 0 0 0 0 0 0 0 0 127 0" result="hardAlpha"/>
<feOffset dy="4"/>
<feGaussianBlur stdDeviation="2"/>
<feComposite in2="hardAlpha" operator="out"/>
<feColorMatrix type="matrix" values="0 0 0 0 0 0 0 0 0 0 0 0 0 0 0 0 0 0 0.25 0"/>
<feBlend mode="normal" in2="BackgroundImageFix" result="effect1_dropShadow_0_1"/>
<feBlend mode="normal" in="SourceGraphic" in2="effect1_dropShadow_0_1" result="shape"/>
</filter>
</defs>
</svg>
